<svg width="55" height="53" viewBox="0 0 55 53" fill="none" xmlns="http://www.w3.org/2000/svg">
<path fill-rule="evenodd" clip-rule="evenodd" d="M27.2436 3.29728C14.1669 3.29728 3.58699 13.648 3.58699 26.391C3.58699 39.1339 14.1669 49.4846 27.2436 49.4846C40.3204 49.4846 50.9002 39.1339 50.9002 26.391C50.9002 13.648 40.3204 3.29728 27.2436 3.29728ZM0.630005 26.391C0.630005 12.017 12.5569 0.385193 27.2436 0.385193C41.9304 0.385193 53.8572 12.017 53.8572 26.391C53.8572 40.7649 41.9304 52.3967 27.2436 52.3967C12.5569 52.3967 0.630005 40.7649 0.630005 26.391Z" fill="#0085FF"/>
<path d="M4.79244 39.6507C6.42554 39.6507 7.74943 38.3469 7.74943 36.7386C7.74943 35.1303 6.42554 33.8266 4.79244 33.8266C3.15934 33.8266 1.83545 35.1303 1.83545 36.7386C1.83545 38.3469 3.15934 39.6507 4.79244 39.6507Z" fill="#64ED74"/>
<path d="M39.0323 50.6703C40.6654 50.6703 41.9893 49.3666 41.9893 47.7582C41.9893 46.1499 40.6654 44.8462 39.0323 44.8462C37.3992 44.8462 36.0753 46.1499 36.0753 47.7582C36.0753 49.3666 37.3992 50.6703 39.0323 50.6703Z" fill="#FF8D4D"/>
<path d="M44.0328 11.1172C45.6659 11.1172 46.9898 9.81337 46.9898 8.20507C46.9898 6.59677 45.6659 5.29298 44.0328 5.29298C42.3997 5.29298 41.0758 6.59677 41.0758 8.20507C41.0758 9.81337 42.3997 11.1172 44.0328 11.1172Z" fill="#FF4D4D"/>
<path d="M37.8664 33.6366L27.3363 37.1337L16.9775 33.7373C16.9621 31.5049 16.9458 29.2724 16.9286 27.04C18.4844 27.5583 19.7466 27.9734 20.6056 28.2552C21.4273 28.5244 24.9137 29.6389 25.6491 29.9081C25.7058 29.9282 25.9634 30.0238 26.3176 30.1383C26.5597 30.2163 26.6807 30.2553 26.7554 30.2729C27.1817 30.3726 27.6261 30.3726 28.0524 30.2729C28.1812 30.2415 28.4182 30.1685 28.5933 30.1132C28.8406 30.0352 29.0209 29.9698 29.066 29.9547C29.4524 29.8163 30.5561 29.4515 32.2381 28.8892C33.9562 28.3181 34.1314 28.2791 36.809 27.396L37.8908 27.0388L37.8664 33.6366Z" fill="#0085FF"/>
<path d="M40.8105 22.8159H40.3713V36.9739H40.8105V22.8159Z" fill="#0085FF"/>
<path d="M40.5672 37.8557C40.9449 37.8557 41.2511 37.5566 41.2511 37.1877C41.2511 36.8188 40.9449 36.5198 40.5672 36.5198C40.1895 36.5198 39.8833 36.8188 39.8833 37.1877C39.8833 37.5566 40.1895 37.8557 40.5672 37.8557Z" fill="#0085FF"/>
<path d="M41.7636 39.7501L40.5285 39.725L39.2947 39.6986L39.9412 38.3513L40.5878 37.0028L41.175 38.3765L41.7636 39.7501Z" fill="#0085FF"/>
<path d="M11.2437 23.2688C11.7228 23.7984 24.7167 27.8074 27.3981 28.6313L43.4791 23.2876C43.5628 23.256 43.6375 23.2052 43.6969 23.1396C43.7563 23.0739 43.7986 22.9953 43.8204 22.9103C43.8396 22.803 43.8241 22.6926 43.7761 22.5943C43.7281 22.496 43.65 22.4148 43.5526 22.3618L27.3981 17.0483L11.8774 21.9819C11.7846 21.9983 11.3313 22.0876 11.1214 22.4587C11.0547 22.5663 11.0207 22.6902 11.0235 22.8159C11.0478 22.9853 11.1246 23.1434 11.2437 23.2688Z" fill="#0085FF"/>
</svg>
